<?xml version="1.0" standalone="no"?>
<!DOCTYPE svg PUBLIC "-//W3C//DTD SVG 20010904//EN"
 "http://www.w3.org/TR/2001/REC-SVG-20010904/DTD/svg10.dtd">
<svg version="1.0" xmlns="http://www.w3.org/2000/svg"
 width="52.000000pt" height="104.000000pt" viewBox="0 0 52.000000 104.000000"
 preserveAspectRatio="xMidYMid meet">

<g transform="translate(0.000000,104.000000) scale(0.100000,-0.100000)"
fill="#676a6c" stroke="none">
<path d="M100 880 c0 -53 2 -60 20 -60 17 0 20 7 20 40 l0 40 40 0 c33 0 40 3
40 20 0 18 -7 20 -60 20 l-60 0 0 -60z"/>
<path d="M300 920 c0 -17 7 -20 40 -20 l40 0 0 -40 c0 -33 3 -40 20 -40 18 0
20 7 20 60 l0 60 -60 0 c-53 0 -60 -2 -60 -20z"/>
<path d="M100 680 l0 -60 60 0 c53 0 60 2 60 20 0 17 -7 20 -40 20 l-40 0 0
40 c0 33 -3 40 -20 40 -18 0 -20 -7 -20 -60z"/>
<path d="M380 700 l0 -40 -40 0 c-33 0 -40 -3 -40 -20 0 -18 7 -20 60 -20 l60
0 0 60 c0 53 -2 60 -20 60 -17 0 -20 -7 -20 -40z"/>
<path d="M100 360 c0 -53 2 -60 20 -60 17 0 20 7 20 40 l0 40 40 0 c33 0 40 3
40 20 0 18 -7 20 -60 20 l-60 0 0 -60z"/>
<path d="M300 400 c0 -17 7 -20 40 -20 l40 0 0 -40 c0 -33 3 -40 20 -40 18 0
20 7 20 60 l0 60 -60 0 c-53 0 -60 -2 -60 -20z"/>
<path d="M204 307 c-3 -8 -4 -34 -2 -58 l3 -44 55 0 55 0 0 55 0 55 -53 3
c-38 2 -54 -1 -58 -11z"/>
<path d="M100 160 l0 -60 60 0 c53 0 60 2 60 20 0 17 -7 20 -40 20 l-40 0 0
40 c0 33 -3 40 -20 40 -18 0 -20 -7 -20 -60z"/>
<path d="M380 180 l0 -40 -40 0 c-33 0 -40 -3 -40 -20 0 -18 7 -20 60 -20 l60
0 0 60 c0 53 -2 60 -20 60 -17 0 -20 -7 -20 -40z"/>
</g>
</svg>
