<?xml version="1.0" encoding="utf-8"?>
<!-- Generator: Adobe Illustrator 16.0.0, SVG Export Plug-In . SVG Version: 6.00 Build 0)  -->
<!DOCTYPE svg PUBLIC "-//W3C//DTD SVG 1.1//EN" "http://www.w3.org/Graphics/SVG/1.1/DTD/svg11.dtd">
<svg version="1.1" id="Layer_1" xmlns="http://www.w3.org/2000/svg" xmlns:xlink="http://www.w3.org/1999/xlink" x="0px" y="0px"
	 width="500px" height="132.253px" viewBox="0 0 500 132.253" enable-background="new 0 0 500 132.253" xml:space="preserve">
<g>
	<g>
		<path fill="#3970CA" d="M41.104,33.177c-18.666,0-33.852,15.188-33.852,33.85c0,18.667,15.186,33.854,33.852,33.854
			s33.85-15.186,33.85-33.854C74.955,48.366,59.77,33.177,41.104,33.177z M72.144,67.028c0,3.927-0.734,7.674-2.064,11.132
			c-1.159-0.604-6.694-3.489-8.84-4.1c-10.711-3.033-9.123,2.71-11.439,3.139c-5.346,0.981-5.176-1.54-4.969-2.857
			c0.132-0.835,0.51-1.833,0.053-2.438c-0.408-0.534-4.393-0.45-4.393-0.45s-0.257,0.045-0.024-0.602
			c0.396-1.091,1.521-3.629,0.677-4.188c-1.298-0.86-2.725,3.48-4.175,2.892c-0.921-0.373-2.249-0.265-2.784-1.272
			c-0.356-0.669-0.771-0.592-1.002-1.464c-0.504-1.896,0.167-4.756,0.711-5.652c0.341-0.562,1.292-0.795,1.705-1.12
			c0.313-0.244,0.551-0.881,0.931-1.054c1.191-0.55,3.979,0.327,5.309,0.228c0.358-0.029,0.952-0.308,1.289-0.21
			c0.523,0.146,1.131,0.978,1.293,1.478c0.151,0.462,0.066,1.428,0.294,1.874c0.065,0.128,0.544,0.548,0.754,0.77
			c0.372,0.395,0.506,0.722,0.819,0.611c1.737-0.611-0.063-3.022-0.386-3.966c-0.151-0.438-0.352-1.654-0.083-2.14
			c0.609-1.104,2.968-2.207,3.32-3.11c0.102-0.26-0.474-0.734-0.478-1.012c-0.002-0.395,0.653-1.192,0.813-1.555
			c0.172-0.397-0.235-1.253,0.467-2.099c1.133-1.359,1.063-1.506,2.074-2.217c0.381-0.265,1.831-0.641,1.673-1.094
			c-0.238-0.671-2.182-1.213-2.149-1.874c0.016-0.376,1.286-0.372,2.474,0.471c1.091,0.779,2.67,1.4,3.085,1.26
			c0.941-0.315-0.997-1.516-2.156-1.975c-0.702-0.275-0.578-1.103-1.664-1.888c-0.499-0.359-1.684-0.751-2.21-1.073
			c-0.575-0.35-1.803-1.35-2.424-1.615c-0.508-0.22-1.03-0.038-1.856-0.256c-0.512-0.135-1.497-0.532-2.007-0.669
			c-0.666-0.182-2.059,0.009-2.059,0.009s2.297,0.991,1.667,2.51c-0.41,0.992-2.347,0.547-3.033,0.325
			c-0.511-0.165-1.508-0.586-1.994-0.765c-0.353-0.128-1.706-0.351-1.935-0.614c-0.238-0.282,0.24-1.015,0.729-1.456
			c0.402-0.361,1.37-0.739,1.872-0.745c0.361-0.002,1.05,0.394,1.406,0.334c0.33-0.052,0.734-0.791,1.07-0.801
			c1.271-0.041,4.345,1.35,4.758,1.085c0.37-0.234-0.445-1.314-0.813-1.556c-0.584-0.384-1.851-0.822-3.054-1.185
			C59.448,37.251,72.144,50.687,72.144,67.028z M10.063,67.028c0-10.598,5.341-19.974,13.475-25.576
			c-0.21,0.417-0.469,0.99-0.497,1.325c-0.038,0.487,0.461,1.511,0.235,1.943c-1.239,2.34-2.951,3.875-3.345,5.417
			c-0.836,3.277,0.601,3.735,1.471,6.421c0.436,1.338,0.068,2.309,0.836,4.551c0.724,2.101,1.385,2.275,1.474,2.239
			c0.334-0.133-0.794-2.506-0.167-2.607c0.601-0.103,0.738,1.216,1.303,1.905c3.212,3.909,1.546,3.765,2.143,4.983
			c1.404,2.875,3.763,2.574,5.083,3.216c1.037,0.496,0.851,0.759,1.272,0.799c1.088,0.104,1.907-0.683,2.609-0.203
			c0.32,0.225,0.397,1.083,0.801,1.339c1.639,1.033,3.131,0.701,4.013,1.268c1.239,0.804,2.35,2.918,4.015,3.686
			c2.911,1.335,3.601,0.211,4.546,0.766c0.803,0.47,0.772,2.276,0.035,3.445c-0.539,0.853-1.807,0.961-2.241,2.741
			c-0.479,1.961,1.009,6.458,2.542,7.865c1.404,1.287,2.688,1.355,3.211,1.435c0.147,0.024-1.16,1.541-2.011,2.507
			c-3.072,1.025-6.355,1.573-9.763,1.573C23.988,98.07,10.063,84.148,10.063,67.028z"/>
		<g>
			<path fill="#3970CA" d="M31.134,26.271c0.858,2.339,9.249-2.35,18.063-1.004c10.188,1.556,12.998,11.341,16.458,7.829
				c1.485-1.512-2.508-4.568-2.508-4.568s-6.426-5.74-14.501-6.369C39.013,21.404,30.232,23.814,31.134,26.271z"/>
			<path fill="#3970CA" d="M28.324,16.285c0.905,2.712,8.38-3.76,18.866-2.558c20.746,2.382,20.612,15.953,25.138,12.092
				c1.207-1.03,0.656-2.941-1.404-5.218c-3.774-4.168-12.145-9.22-20.775-9.934C39.31,9.771,27.496,13.802,28.324,16.285z"/>
			<path fill="#3970CA" d="M27.724,6.253c0.201,3.11,10.185-5.522,26.893-1.66c20.117,4.653,18.314,15.205,23.332,12.245
				c1.844-1.086-1.049-4.345-3.112-6.624c-3.771-4.167-12.682-8.303-21.271-9.382C42.776-0.521,27.514,2.992,27.724,6.253z"/>
		</g>
		<g>
			<path fill="#3970CA" d="M48.171,107.994c-0.638-2.405-9.424,1.485-18.079-0.671c-9.996-2.493-11.888-12.493-15.66-9.316
				c-1.622,1.365,2.074,4.778,2.074,4.778s5.865,6.313,13.85,7.684C39.878,112.112,48.841,110.527,48.171,107.994z"/>
			<path fill="#3970CA" d="M50.045,118.198c-0.648-2.78-8.693,2.971-19.023,0.804c-20.431-4.298-19.043-17.797-23.908-14.37
				c-1.296,0.912-0.926,2.866,0.917,5.323c3.37,4.5,11.238,10.305,19.762,11.819C38.505,123.67,50.639,120.75,50.045,118.198z"/>
			<path fill="#3970CA" d="M49.716,128.248c0.087-3.119-10.653,4.551-26.933-0.844c-19.599-6.497-16.827-16.837-22.096-14.352
				c-1.935,0.911,0.641,4.424,2.486,6.887c3.367,4.495,11.858,9.438,20.312,11.313C34.099,133.594,49.624,131.513,49.716,128.248z"
				/>
		</g>
	</g>
	<g>
		<path fill="#3970CA" d="M102.346,83.013c-5.694,0-10.155-1.349-13.378-4.042c-3.225-2.695-4.836-6.521-4.836-11.479
			c0-7.724,2.488-14.024,7.463-18.901c4.975-4.875,11.289-7.315,18.942-7.315c2.893,0,5.573,0.247,8.044,0.742
			c2.469,0.494,5.033,1.432,7.692,2.815l-2.29,9.403h-1.159c-2.156-2.047-4.195-3.471-6.117-4.27
			c-1.922-0.799-4.041-1.199-6.359-1.199c-2.353,0-4.481,0.479-6.385,1.44c-1.904,0.96-3.53,2.256-4.876,3.889
			c-1.275,1.543-2.272,3.374-2.99,5.492c-0.72,2.118-1.08,4.334-1.08,6.649c0,3.212,0.882,5.577,2.645,7.092
			c1.761,1.518,4.631,2.274,8.606,2.274c0.396,0,0.828-0.009,1.295-0.026c0.467-0.017,0.899-0.045,1.294-0.081l1.814-7.841h-8.001
			l1.751-7.571h18.512l-4.582,19.803c-2.388,0.828-4.934,1.555-7.638,2.183C108.007,82.698,105.219,83.013,102.346,83.013z"/>
		<path fill="#3970CA" d="M167.197,53.159c0,4.779-1.981,8.631-5.942,11.558c-3.962,2.929-9.5,4.391-16.615,4.391h-3.934
			l-3.015,13.07h-10.398l9.256-40.12h14.42c2.624,0,4.911,0.179,6.86,0.539c1.95,0.361,3.634,0.98,5.055,1.859
			c1.401,0.881,2.471,2.025,3.207,3.435C166.83,49.303,167.197,51.058,167.197,53.159z M156.15,54.156
			c0-1.562-0.567-2.721-1.702-3.476c-1.134-0.755-2.816-1.131-5.047-1.131h-4.185l-2.772,12.016h3.723
			c3.146,0,5.597-0.642,7.351-1.926C155.274,58.355,156.15,56.527,156.15,54.156z"/>
		<path fill="#3970CA" d="M182.475,82.905c-3.432,0-6.489-0.297-9.174-0.888c-2.686-0.591-5.008-1.328-6.965-2.209l2.074-9.62h1.131
			c1.849,1.689,4.023,2.995,6.52,3.919c2.496,0.925,5.183,1.387,8.056,1.387c2.946,0,5.11-0.398,6.494-1.198
			c1.382-0.799,2.075-1.945,2.075-3.435c0-0.556-0.112-1.038-0.336-1.441c-0.225-0.407-0.66-0.804-1.307-1.2
			c-0.647-0.396-1.532-0.785-2.654-1.172c-1.124-0.386-2.573-0.83-4.351-1.333c-1.958-0.54-3.714-1.123-5.267-1.752
			c-1.554-0.628-2.879-1.373-3.974-2.235c-1.095-0.88-1.927-1.896-2.492-3.045c-0.565-1.149-0.848-2.524-0.848-4.123
			c0-4.024,1.773-7.234,5.321-9.632c3.547-2.397,8.402-3.596,14.563-3.596c2.964,0,5.761,0.242,8.393,0.727
			c2.63,0.486,4.863,1.141,6.695,1.967l-1.966,9.242h-1.104c-1.402-1.285-3.247-2.361-5.537-3.227
			c-2.291-0.866-4.792-1.299-7.504-1.299c-2.66,0-4.716,0.383-6.171,1.151c-1.456,0.768-2.183,1.83-2.183,3.187
			c0,0.628,0.108,1.149,0.323,1.562c0.216,0.413,0.654,0.817,1.321,1.213c0.574,0.36,1.482,0.749,2.721,1.172
			c1.239,0.423,2.694,0.857,4.365,1.306c4.49,1.205,7.697,2.615,9.619,4.231s2.883,3.808,2.883,6.574
			c0,2.317-0.521,4.356-1.562,6.118c-1.042,1.758-2.479,3.189-4.311,4.284c-1.922,1.169-4.105,2.022-6.547,2.561
			C188.332,82.635,185.565,82.905,182.475,82.905z"/>
		<path fill="#3970CA" d="M228.604,68.22h-20.559l1.779-7.76h20.559L228.604,68.22z"/>
		<path fill="#3970CA" d="M244.581,83.013c-2.587,0-5.092-0.243-7.518-0.727c-2.426-0.486-4.284-1.052-5.578-1.699l1.861-7.976h0.89
			c0.396,0.344,0.895,0.718,1.498,1.129c0.602,0.414,1.461,0.844,2.575,1.295c0.954,0.412,2.06,0.768,3.319,1.064
			c1.259,0.297,2.617,0.446,4.073,0.446c2.176,0,3.809-0.252,4.897-0.753c1.086-0.503,1.631-1.224,1.631-2.155
			c0-0.718-0.388-1.269-1.162-1.644c-0.772-0.378-2.374-0.844-4.802-1.404c-4.12-0.949-6.941-2.1-8.46-3.448
			c-1.52-1.346-2.281-3.026-2.281-5.038c0-3.412,1.526-6.103,4.581-8.07s7.185-2.95,12.396-2.95c2.263,0,4.525,0.229,6.789,0.687
			c2.264,0.458,3.925,0.948,4.985,1.468l-1.781,7.652h-0.838c-1.276-0.987-2.819-1.791-4.627-2.412
			c-1.809-0.619-3.666-0.931-5.573-0.931c-2.067,0-3.655,0.249-4.762,0.743c-1.107,0.495-1.658,1.252-1.658,2.277
			c0,0.791,0.477,1.397,1.43,1.818c0.953,0.422,2.456,0.857,4.506,1.307c3.815,0.827,6.563,1.868,8.245,3.126
			c1.682,1.258,2.522,3.018,2.522,5.283c0,3.375-1.544,6.039-4.635,7.987C254.02,82.038,249.843,83.013,244.581,83.013z"/>
		<path fill="#3970CA" d="M282.721,83.013c-5.16,0-9.143-1.142-11.946-3.425c-2.805-2.284-4.207-5.439-4.207-9.466
			c0-2.75,0.457-5.277,1.374-7.579c0.918-2.301,2.237-4.323,3.965-6.067c1.652-1.69,3.721-3.029,6.201-4.018
			c2.48-0.988,5.205-1.482,8.171-1.482c4.513,0,7.914,0.913,10.206,2.739c2.291,1.826,3.438,4.521,3.438,8.082
			c0,1.225-0.12,2.42-0.362,3.589c-0.244,1.17-0.563,2.328-0.959,3.481h-22.522c0,0.107,0,0.21,0,0.31s0,0.203,0,0.311
			c0,2.101,0.739,3.745,2.215,4.931c1.478,1.185,3.736,1.777,6.781,1.777c2.125,0,4.137-0.358,6.037-1.077
			c1.897-0.718,3.552-1.518,4.957-2.398h1.08l-1.807,7.787c-1.887,0.826-3.873,1.45-5.959,1.871
			C287.294,82.802,285.076,83.013,282.721,83.013z M290.142,63.183c0.054-0.325,0.095-0.622,0.12-0.893
			c0.026-0.27,0.041-0.551,0.041-0.839c0-1.425-0.442-2.518-1.324-3.275c-0.885-0.757-2.155-1.136-3.814-1.136
			c-2.002,0-3.684,0.542-5.044,1.624c-1.362,1.083-2.394,2.589-3.097,4.52H290.142z"/>
		<path fill="#3970CA" d="M329.132,61.162h-0.859c-0.432-0.143-1.042-0.252-1.831-0.323s-1.568-0.108-2.34-0.108
			c-1.273,0-2.502,0.094-3.686,0.284c-1.184,0.188-2.402,0.49-3.659,0.901l-4.699,20.263h-9.765l7.018-30.258h9.766l-1.031,4.444
			c1.829-1.347,3.654-2.442,5.477-3.287c1.82-0.844,3.655-1.267,5.502-1.267c0.341,0,0.722,0.01,1.144,0.026
			c0.421,0.019,0.794,0.045,1.117,0.081L329.132,61.162z"/>
		<path fill="#3970CA" d="M366.878,51.92l-18.671,30.258h-11.048l-4.581-30.258h10.003l2.203,20.873l11.679-20.873H366.878z"/>
		<path fill="#3970CA" d="M382.601,83.013c-5.161,0-9.144-1.142-11.946-3.425c-2.804-2.284-4.208-5.439-4.208-9.466
			c0-2.75,0.459-5.277,1.375-7.579c0.918-2.301,2.238-4.323,3.964-6.067c1.654-1.69,3.722-3.029,6.202-4.018
			c2.479-0.988,5.204-1.482,8.171-1.482c4.513,0,7.915,0.913,10.206,2.739c2.292,1.826,3.438,4.521,3.438,8.082
			c0,1.225-0.122,2.42-0.364,3.589c-0.244,1.17-0.563,2.328-0.959,3.481h-22.521c0,0.107,0,0.21,0,0.31s0,0.203,0,0.311
			c0,2.101,0.738,3.745,2.216,4.931c1.476,1.185,3.735,1.777,6.781,1.777c2.124,0,4.136-0.358,6.035-1.077s3.552-1.518,4.958-2.398
			h1.08l-1.807,7.787c-1.888,0.826-3.873,1.45-5.96,1.871C387.175,82.802,384.956,83.013,382.601,83.013z M390.022,63.183
			c0.054-0.325,0.094-0.622,0.12-0.893c0.025-0.27,0.042-0.551,0.042-0.839c0-1.425-0.444-2.518-1.325-3.275
			c-0.884-0.757-2.155-1.136-3.813-1.136c-2.002,0-3.684,0.542-5.045,1.624c-1.362,1.083-2.394,2.589-3.098,4.52H390.022z"/>
		<path fill="#3970CA" d="M429.013,61.162h-0.86c-0.431-0.143-1.041-0.252-1.83-0.323s-1.568-0.108-2.34-0.108
			c-1.272,0-2.503,0.094-3.686,0.284c-1.184,0.188-2.403,0.49-3.659,0.901l-4.699,20.263h-9.765l7.018-30.258h9.767l-1.032,4.444
			c1.829-1.347,3.654-2.442,5.476-3.287c1.82-0.844,3.656-1.267,5.503-1.267c0.342,0,0.722,0.01,1.144,0.026
			c0.421,0.019,0.793,0.045,1.117,0.081L429.013,61.162z"/>
	</g>
	<g>
		<path fill="#696969" d="M96.502,97.969h-0.397c-0.198-0.068-0.479-0.117-0.843-0.151c-0.363-0.032-0.723-0.05-1.079-0.05
			c-0.588,0-1.154,0.045-1.699,0.131c-0.546,0.088-1.108,0.228-1.687,0.416l-2.166,9.341h-4.5l3.234-13.947h4.501l-0.475,2.048
			c0.843-0.622,1.684-1.127,2.523-1.514c0.839-0.39,1.685-0.583,2.537-0.583c0.158,0,0.333,0.005,0.527,0.011
			c0.195,0.009,0.365,0.023,0.515,0.039L96.502,97.969z"/>
		<path fill="#696969" d="M104.643,108.041c-2.378,0-4.214-0.526-5.507-1.578c-1.293-1.054-1.94-2.509-1.94-4.364
			c0-1.268,0.212-2.432,0.634-3.492c0.423-1.061,1.032-1.993,1.828-2.797c0.762-0.779,1.715-1.396,2.858-1.853
			c1.144-0.455,2.399-0.682,3.767-0.682c2.081,0,3.649,0.421,4.705,1.263c1.056,0.841,1.585,2.084,1.585,3.724
			c0,0.563-0.057,1.115-0.168,1.655c-0.112,0.539-0.259,1.073-0.442,1.604H101.58c0,0.049,0,0.097,0,0.144c0,0.045,0,0.093,0,0.143
			c0,0.968,0.34,1.727,1.021,2.272c0.681,0.548,1.722,0.82,3.125,0.82c0.98,0,1.907-0.166,2.783-0.497
			c0.875-0.331,1.637-0.699,2.284-1.105h0.498l-0.833,3.588c-0.87,0.381-1.787,0.669-2.748,0.862
			C106.75,107.942,105.727,108.041,104.643,108.041z M108.063,98.899c0.024-0.148,0.044-0.286,0.057-0.409
			c0.013-0.125,0.02-0.255,0.02-0.387c0-0.657-0.204-1.161-0.611-1.51c-0.408-0.351-0.993-0.524-1.757-0.524
			c-0.924,0-1.698,0.251-2.325,0.748c-0.628,0.5-1.104,1.193-1.428,2.083H108.063L108.063,98.899z"/>
		<path fill="#696969" d="M122.632,88.332l-4.467,19.324h-4.5l4.467-19.324H122.632z"/>
		<path fill="#696969" d="M130.093,93.709l-3.234,13.947h-4.501l3.235-13.947H130.093z M131.46,88.332l-0.783,3.389h-4.744
			l0.783-3.389H131.46z"/>
		<path fill="#696969" d="M139.853,106.179c-0.282,0.185-0.622,0.405-1.021,0.662c-0.397,0.259-0.766,0.464-1.106,0.612
			c-0.463,0.191-0.899,0.338-1.305,0.438c-0.407,0.099-0.97,0.15-1.691,0.15c-1.16,0-2.106-0.326-2.839-0.978
			c-0.734-0.65-1.1-1.498-1.1-2.542c0-1.104,0.261-2.039,0.782-2.807c0.521-0.766,1.293-1.377,2.32-1.833
			c0.959-0.432,2.102-0.744,3.431-0.933c1.328-0.191,2.764-0.333,4.311-0.423c0.009-0.05,0.026-0.129,0.055-0.243
			c0.026-0.11,0.041-0.235,0.041-0.377c0-0.588-0.273-1-0.82-1.236c-0.546-0.234-1.362-0.355-2.445-0.355
			c-0.738,0-1.551,0.124-2.439,0.374c-0.89,0.248-1.559,0.456-2.006,0.619h-0.408l0.657-3.303c0.522-0.132,1.329-0.28,2.422-0.446
			c1.093-0.167,2.183-0.25,3.266-0.25c2.186,0,3.791,0.286,4.813,0.858c1.023,0.572,1.534,1.457,1.534,2.657
			c0,0.167-0.015,0.38-0.043,0.646c-0.029,0.266-0.068,0.499-0.119,0.697l-2.186,9.489h-4.448L139.853,106.179z M141.041,101.074
			c-0.799,0.065-1.548,0.145-2.248,0.234c-0.698,0.092-1.294,0.224-1.786,0.398c-0.507,0.183-0.893,0.439-1.161,0.771
			c-0.268,0.33-0.4,0.77-0.4,1.314c0,0.482,0.176,0.819,0.53,1.014c0.355,0.193,0.868,0.292,1.542,0.292
			c0.442,0,0.914-0.101,1.417-0.304c0.504-0.202,0.977-0.459,1.417-0.774L141.041,101.074z"/>
		<path fill="#696969" d="M164.521,98.167c0,1.268-0.206,2.497-0.615,3.688c-0.409,1.193-0.97,2.231-1.682,3.116
			c-0.728,0.903-1.582,1.621-2.558,2.155c-0.978,0.536-2.058,0.802-3.242,0.802c-0.778,0-1.476-0.079-2.092-0.236
			c-0.616-0.159-1.165-0.402-1.646-0.733l-0.325,0.697h-4.321l4.455-19.324h4.499l-1.575,6.829c0.802-0.554,1.567-1,2.291-1.335
			c0.724-0.335,1.534-0.502,2.427-0.502c1.44,0,2.531,0.428,3.272,1.285C164.15,95.465,164.521,96.652,164.521,98.167z
			 M159.79,98.998c0-0.777-0.169-1.369-0.51-1.774c-0.34-0.404-0.928-0.609-1.765-0.609c-0.439,0-0.869,0.078-1.292,0.231
			c-0.422,0.154-0.869,0.354-1.342,0.601l-1.602,7.005c0.29,0.114,0.596,0.209,0.917,0.279c0.323,0.069,0.687,0.105,1.092,0.105
			c1.38,0,2.475-0.545,3.287-1.635C159.384,102.114,159.79,100.714,159.79,98.998z"/>
		<path fill="#696969" d="M174.791,88.332l-4.467,19.324h-4.5l4.467-19.324H174.791z"/>
		<path fill="#696969" d="M182.387,108.041c-2.379,0-4.214-0.526-5.506-1.578c-1.294-1.054-1.94-2.509-1.94-4.364
			c0-1.268,0.212-2.432,0.634-3.492c0.423-1.061,1.032-1.993,1.827-2.797c0.762-0.779,1.715-1.396,2.858-1.853
			c1.144-0.455,2.399-0.682,3.767-0.682c2.081,0,3.649,0.421,4.705,1.263c1.056,0.841,1.585,2.084,1.585,3.724
			c0,0.563-0.057,1.115-0.168,1.655c-0.112,0.539-0.26,1.073-0.442,1.604h-10.382c0,0.049,0,0.097,0,0.144c0,0.045,0,0.093,0,0.143
			c0,0.968,0.34,1.727,1.022,2.272c0.681,0.548,1.722,0.82,3.125,0.82c0.98,0,1.907-0.166,2.783-0.497
			c0.875-0.331,1.637-0.699,2.284-1.105h0.498l-0.832,3.588c-0.87,0.381-1.787,0.669-2.748,0.862
			C184.495,107.942,183.473,108.041,182.387,108.041z M185.807,98.899c0.024-0.148,0.044-0.286,0.056-0.409
			c0.013-0.125,0.02-0.255,0.02-0.387c0-0.657-0.204-1.161-0.611-1.51c-0.408-0.351-0.993-0.524-1.757-0.524
			c-0.923,0-1.698,0.251-2.325,0.748c-0.628,0.5-1.103,1.193-1.428,2.083H185.807L185.807,98.899z"/>
		<path fill="#696969" d="M216.898,93.709l-2.804,12.344c-0.306,1.326-0.739,2.428-1.303,3.304
			c-0.562,0.878-1.246,1.578-2.049,2.099c-0.829,0.538-1.729,0.916-2.698,1.13c-0.97,0.216-2.058,0.323-3.269,0.323
			c-1.002,0-1.963-0.061-2.883-0.179c-0.92-0.122-1.695-0.261-2.324-0.417l0.684-3.427h0.548c0.689,0.264,1.385,0.474,2.09,0.633
			c0.706,0.157,1.33,0.236,1.878,0.236c0.788,0,1.472-0.073,2.051-0.219c0.58-0.144,1.035-0.354,1.369-0.626
			c0.357-0.29,0.641-0.646,0.852-1.069c0.211-0.421,0.381-0.939,0.51-1.553l0.06-0.261c-0.647,0.438-1.288,0.788-1.925,1.043
			c-0.639,0.258-1.359,0.386-2.163,0.386c-1.564,0-2.791-0.395-3.672-1.179c-0.883-0.79-1.324-1.976-1.324-3.564
			c0-2.741,0.774-4.993,2.325-6.75c1.55-1.759,3.431-2.639,5.644-2.639c0.795,0,1.519,0.095,2.169,0.286
			c0.65,0.188,1.176,0.429,1.572,0.721l0.313-0.622H216.898L216.898,93.709z M211.668,96.938c-0.241-0.108-0.558-0.21-0.952-0.305
			c-0.396-0.093-0.742-0.144-1.039-0.144c-1.336,0-2.412,0.503-3.225,1.505c-0.813,1.002-1.221,2.287-1.221,3.861
			c0,0.712,0.174,1.268,0.523,1.664c0.349,0.398,0.976,0.597,1.881,0.597c0.439,0,0.887-0.085,1.338-0.254
			c0.453-0.172,0.877-0.372,1.275-0.604L211.668,96.938z"/>
		<path fill="#696969" d="M234.354,98.167c0,1.283-0.209,2.526-0.627,3.731c-0.417,1.205-0.986,2.242-1.706,3.112
			c-0.753,0.918-1.604,1.635-2.551,2.147c-0.947,0.513-2.009,0.771-3.185,0.771c-0.745,0-1.429-0.086-2.054-0.256
			s-1.189-0.408-1.695-0.714l-1.342,5.812h-4.5l4.404-19.062h4.499l-0.335,1.452c0.844-0.579,1.625-1.032,2.341-1.353
			c0.716-0.322,1.509-0.484,2.378-0.484c1.408,0,2.488,0.427,3.242,1.285C233.978,95.465,234.354,96.652,234.354,98.167z
			 M228.529,103.061c0.358-0.522,0.629-1.133,0.821-1.833c0.19-0.698,0.286-1.459,0.286-2.279c0-0.752-0.167-1.331-0.497-1.731
			c-0.331-0.402-0.923-0.604-1.774-0.604c-0.439,0-0.869,0.079-1.29,0.232c-0.422,0.153-0.869,0.354-1.34,0.6l-1.62,7.016
			c0.264,0.118,0.573,0.206,0.926,0.268c0.352,0.062,0.713,0.092,1.086,0.092c0.754,0,1.42-0.16,2-0.484
			C227.705,104.018,228.173,103.59,228.529,103.061z"/>
		<path fill="#696969" d="M241.048,108.041c-1.192,0-2.347-0.112-3.465-0.335c-1.119-0.224-1.975-0.484-2.57-0.784l0.857-3.676
			h0.409c0.183,0.157,0.412,0.331,0.691,0.521c0.278,0.189,0.673,0.389,1.188,0.597c0.439,0.191,0.949,0.354,1.53,0.491
			c0.58,0.137,1.206,0.205,1.877,0.205c1.003,0,1.755-0.114,2.257-0.347c0.502-0.231,0.752-0.563,0.752-0.995
			c0-0.331-0.178-0.583-0.536-0.757c-0.357-0.173-1.094-0.39-2.213-0.646c-1.898-0.439-3.199-0.969-3.9-1.59
			c-0.701-0.621-1.051-1.394-1.051-2.322c0-1.573,0.703-2.814,2.111-3.721c1.409-0.906,3.312-1.36,5.714-1.36
			c1.042,0,2.086,0.105,3.13,0.317c1.042,0.209,1.808,0.437,2.296,0.675l-0.821,3.529h-0.385c-0.589-0.456-1.301-0.827-2.134-1.112
			c-0.833-0.286-1.689-0.428-2.568-0.428c-0.954,0-1.686,0.114-2.195,0.34c-0.51,0.227-0.765,0.579-0.765,1.049
			c0,0.365,0.22,0.645,0.66,0.841c0.439,0.194,1.131,0.394,2.077,0.6c1.757,0.38,3.024,0.862,3.8,1.441
			c0.776,0.579,1.163,1.392,1.163,2.435c0,1.556-0.711,2.783-2.136,3.682C245.396,107.589,243.474,108.041,241.048,108.041z"/>
		<path fill="#696969" d="M264.807,107.929c-1.55,0-2.652-0.255-3.317-0.764c-0.662-0.508-0.991-1.266-0.991-2.268
			c0-0.264,0.02-0.52,0.062-0.77c0.042-0.248,0.095-0.538,0.162-0.869l1.523-6.607h-1.847l0.684-2.943h1.842l0.921-3.988h4.486
			l-0.915,3.988h4.185l-0.68,2.943h-4.183l-1.166,5.031c-0.084,0.347-0.163,0.697-0.239,1.049c-0.074,0.352-0.113,0.653-0.113,0.9
			c0,0.496,0.139,0.843,0.416,1.036c0.276,0.196,0.704,0.293,1.283,0.293c0.231,0,0.535-0.043,0.911-0.131
			c0.379-0.088,0.678-0.185,0.901-0.293h0.371l-0.695,2.995c-0.505,0.124-1.037,0.221-1.597,0.29
			C266.252,107.893,265.586,107.929,264.807,107.929z"/>
		<path fill="#696969" d="M283.412,97.969h-0.396c-0.198-0.068-0.479-0.117-0.843-0.151c-0.364-0.032-0.723-0.05-1.08-0.05
			c-0.588,0-1.152,0.045-1.698,0.131c-0.547,0.088-1.108,0.228-1.687,0.416l-2.167,9.341h-4.5l3.233-13.947h4.502l-0.476,2.048
			c0.844-0.622,1.685-1.127,2.524-1.514c0.84-0.39,1.685-0.583,2.536-0.583c0.158,0,0.334,0.005,0.527,0.011
			c0.194,0.009,0.366,0.023,0.515,0.039L283.412,97.969z"/>
		<path fill="#696969" d="M292.484,106.179c-0.281,0.185-0.621,0.405-1.02,0.662c-0.399,0.259-0.766,0.464-1.106,0.612
			c-0.464,0.191-0.9,0.338-1.306,0.438c-0.406,0.099-0.969,0.15-1.691,0.15c-1.159,0-2.106-0.326-2.839-0.978
			c-0.734-0.65-1.1-1.498-1.1-2.542c0-1.104,0.26-2.039,0.782-2.807c0.52-0.766,1.292-1.377,2.319-1.833
			c0.959-0.432,2.103-0.744,3.432-0.933c1.326-0.191,2.763-0.333,4.311-0.423c0.009-0.05,0.026-0.129,0.056-0.243
			c0.026-0.11,0.04-0.235,0.04-0.377c0-0.588-0.273-1-0.819-1.236c-0.547-0.234-1.362-0.355-2.445-0.355
			c-0.739,0-1.552,0.124-2.44,0.374c-0.89,0.248-1.559,0.456-2.005,0.619h-0.408l0.656-3.303c0.522-0.132,1.329-0.28,2.423-0.446
			c1.092-0.167,2.182-0.25,3.266-0.25c2.186,0,3.791,0.286,4.813,0.858s1.533,1.457,1.533,2.657c0,0.167-0.016,0.38-0.043,0.646
			c-0.029,0.266-0.069,0.499-0.119,0.697l-2.186,9.489h-4.448L292.484,106.179z M293.674,101.074
			c-0.799,0.065-1.549,0.145-2.248,0.234c-0.697,0.092-1.293,0.224-1.785,0.398c-0.507,0.183-0.893,0.439-1.16,0.771
			c-0.268,0.33-0.4,0.77-0.4,1.314c0,0.482,0.176,0.819,0.53,1.014c0.354,0.193,0.868,0.292,1.542,0.292
			c0.443,0,0.913-0.101,1.418-0.304c0.503-0.202,0.977-0.459,1.416-0.774L293.674,101.074z"/>
		<path fill="#696969" d="M307.876,108.041c-0.951,0-1.845-0.12-2.676-0.355c-0.832-0.234-1.559-0.602-2.18-1.099
			c-0.604-0.49-1.076-1.104-1.417-1.841c-0.34-0.739-0.509-1.593-0.509-2.561c0-1.252,0.239-2.415,0.715-3.488
			c0.475-1.072,1.144-2.01,2.006-2.813c0.843-0.79,1.875-1.41,3.093-1.872c1.217-0.459,2.531-0.689,3.949-0.689
			c0.853,0,1.699,0.095,2.539,0.286c0.841,0.188,1.621,0.467,2.342,0.831l-0.945,3.814h-0.633c-0.488-0.587-1.041-1.024-1.658-1.31
			c-0.617-0.286-1.311-0.43-2.079-0.43c-1.408,0-2.539,0.5-3.39,1.5c-0.853,1-1.279,2.245-1.279,3.738
			c0,1.036,0.264,1.811,0.788,2.326c0.526,0.514,1.344,0.771,2.454,0.771c0.86,0,1.646-0.176,2.354-0.527s1.314-0.743,1.819-1.173
			h0.633l-0.942,3.812c-0.896,0.39-1.679,0.667-2.354,0.831C309.828,107.958,308.951,108.041,307.876,108.041z"/>
		<path fill="#696969" d="M330.604,107.656h-4.715l-2.754-6.156l-1.969,1.747l-1.03,4.409h-4.498l4.454-19.324h4.499l-2.659,11.538
			l6.251-6.161h5.151l-6.465,6.073L330.604,107.656z"/>
		<path fill="#696969" d="M340.438,93.709l-3.235,13.947h-4.501l3.234-13.947H340.438z M341.806,88.332l-0.782,3.389h-4.744
			l0.783-3.389H341.806z"/>
		<path fill="#696969" d="M357.74,96.864c0,0.248-0.017,0.518-0.05,0.806c-0.032,0.29-0.086,0.592-0.16,0.907l-2.083,9.079h-4.528
			l1.586-6.917c0.116-0.513,0.206-0.953,0.272-1.317c0.065-0.362,0.1-0.703,0.1-1.019c0-0.539-0.138-0.934-0.411-1.179
			c-0.271-0.25-0.774-0.374-1.503-0.374c-0.357,0-0.767,0.077-1.23,0.229c-0.464,0.153-0.985,0.383-1.565,0.689l-2.271,9.888h-4.5
			l3.222-13.947h4.499l-0.368,1.54c0.92-0.605,1.76-1.077,2.519-1.417c0.76-0.34,1.595-0.508,2.506-0.508
			c1.252,0,2.228,0.302,2.922,0.906C357.393,94.835,357.74,95.713,357.74,96.864z"/>
		<path fill="#696969" d="M376.312,93.709l-2.805,12.344c-0.305,1.326-0.738,2.428-1.303,3.304
			c-0.562,0.878-1.246,1.578-2.049,2.099c-0.83,0.538-1.729,0.916-2.699,1.13c-0.969,0.216-2.057,0.323-3.268,0.323
			c-1.001,0-1.964-0.061-2.884-0.179c-0.92-0.122-1.694-0.261-2.323-0.417l0.683-3.427h0.549c0.688,0.264,1.384,0.474,2.09,0.633
			c0.705,0.157,1.33,0.236,1.878,0.236c0.788,0,1.471-0.073,2.051-0.219c0.58-0.144,1.035-0.354,1.368-0.626
			c0.357-0.29,0.642-0.646,0.853-1.069c0.211-0.421,0.38-0.939,0.51-1.553l0.06-0.261c-0.647,0.438-1.288,0.788-1.925,1.043
			c-0.639,0.258-1.359,0.386-2.163,0.386c-1.565,0-2.79-0.395-3.673-1.179c-0.883-0.79-1.322-1.976-1.322-3.564
			c0-2.741,0.774-4.993,2.324-6.75c1.55-1.759,3.432-2.639,5.645-2.639c0.793,0,1.518,0.095,2.168,0.286
			c0.649,0.188,1.176,0.429,1.573,0.721l0.312-0.622H376.312L376.312,93.709z M371.082,96.938c-0.241-0.108-0.559-0.21-0.953-0.305
			c-0.395-0.093-0.74-0.144-1.039-0.144c-1.335,0-2.411,0.503-3.225,1.505c-0.813,1.002-1.22,2.287-1.22,3.861
			c0,0.712,0.174,1.268,0.523,1.664c0.348,0.398,0.975,0.597,1.88,0.597c0.439,0,0.886-0.085,1.339-0.254
			c0.452-0.172,0.877-0.372,1.274-0.604L371.082,96.938z"/>
		<path fill="#696969" d="M391.372,108.041c-1.192,0-2.348-0.112-3.466-0.335c-1.117-0.224-1.975-0.484-2.569-0.784l0.857-3.676
			h0.409c0.183,0.157,0.412,0.331,0.69,0.521s0.674,0.389,1.188,0.597c0.439,0.191,0.949,0.354,1.53,0.491
			c0.58,0.137,1.206,0.205,1.877,0.205c1.003,0,1.757-0.114,2.258-0.347c0.502-0.231,0.752-0.563,0.752-0.995
			c0-0.331-0.178-0.583-0.535-0.757c-0.358-0.173-1.094-0.39-2.215-0.646c-1.897-0.439-3.198-0.969-3.899-1.59
			c-0.7-0.621-1.052-1.394-1.052-2.322c0-1.573,0.704-2.814,2.111-3.721c1.409-0.906,3.312-1.36,5.714-1.36
			c1.042,0,2.087,0.105,3.13,0.317c1.042,0.209,1.808,0.437,2.296,0.675l-0.82,3.529h-0.385c-0.589-0.456-1.301-0.827-2.134-1.112
			c-0.834-0.286-1.689-0.428-2.569-0.428c-0.953,0-1.686,0.114-2.194,0.34c-0.51,0.227-0.765,0.579-0.765,1.049
			c0,0.365,0.219,0.645,0.659,0.841c0.438,0.194,1.131,0.394,2.078,0.6c1.756,0.38,3.024,0.862,3.8,1.441
			c0.775,0.579,1.163,1.392,1.163,2.435c0,1.556-0.712,2.783-2.137,3.682S393.797,108.041,391.372,108.041z"/>
		<path fill="#696969" d="M417.165,98.813c0,1.308-0.218,2.533-0.656,3.675c-0.44,1.144-1.056,2.123-1.851,2.943
			c-0.827,0.854-1.788,1.512-2.881,1.97c-1.094,0.46-2.368,0.69-3.826,0.69c-2.078,0-3.671-0.499-4.78-1.49
			c-1.109-0.993-1.664-2.37-1.664-4.123c0-1.243,0.208-2.424,0.622-3.54c0.413-1.119,1.027-2.102,1.837-2.956
			c0.788-0.835,1.754-1.495,2.901-1.981c1.147-0.484,2.431-0.725,3.856-0.725c2.087,0,3.683,0.491,4.788,1.469
			C416.612,95.727,417.165,97.082,417.165,98.813z M411.354,103.382c0.381-0.578,0.669-1.211,0.862-1.897
			c0.195-0.689,0.293-1.525,0.293-2.511c0-0.852-0.187-1.509-0.559-1.968s-0.964-0.689-1.775-0.689
			c-0.629,0-1.182,0.153-1.658,0.458c-0.477,0.305-0.896,0.742-1.26,1.305c-0.34,0.521-0.607,1.168-0.802,1.938
			s-0.292,1.561-0.292,2.372c0,0.952,0.212,1.632,0.633,2.042c0.424,0.408,1.002,0.617,1.741,0.617c0.538,0,1.055-0.148,1.553-0.441
			C410.584,104.313,411.006,103.904,411.354,103.382z"/>
		<path fill="#696969" d="M427.487,88.332l-4.468,19.324h-4.5l4.468-19.324H427.487z"/>
		<path fill="#696969" d="M444.352,93.709l-3.226,13.947h-4.499l0.356-1.54c-0.447,0.29-0.885,0.561-1.309,0.813
			c-0.427,0.253-0.831,0.454-1.212,0.604c-0.48,0.198-0.919,0.333-1.316,0.403c-0.396,0.07-0.791,0.106-1.179,0.106
			c-1.225,0-2.19-0.296-2.898-0.884s-1.062-1.457-1.062-2.607c0-0.315,0.017-0.605,0.049-0.876c0.034-0.268,0.088-0.565,0.162-0.887
			l2.099-9.079h4.513l-1.599,6.917c-0.124,0.529-0.218,0.985-0.279,1.367s-0.093,0.702-0.093,0.968c0,0.548,0.132,0.941,0.397,1.187
			c0.265,0.243,0.766,0.365,1.504,0.365c0.363,0,0.784-0.079,1.261-0.234c0.475-0.158,0.989-0.385,1.546-0.686l2.285-9.884H444.352
			L444.352,93.709z"/>
		<path fill="#696969" d="M450.687,107.929c-1.549,0-2.653-0.255-3.316-0.764c-0.662-0.508-0.993-1.266-0.993-2.268
			c0-0.264,0.021-0.52,0.063-0.77c0.042-0.248,0.095-0.538,0.161-0.869l1.524-6.607h-1.848l0.684-2.943h1.844l0.919-3.988h4.487
			l-0.916,3.988h4.186l-0.681,2.943h-4.181l-1.168,5.031c-0.083,0.347-0.162,0.697-0.237,1.049c-0.076,0.352-0.114,0.653-0.114,0.9
			c0,0.496,0.138,0.843,0.416,1.036c0.276,0.196,0.704,0.293,1.283,0.293c0.231,0,0.536-0.043,0.912-0.131
			c0.377-0.088,0.677-0.185,0.9-0.293h0.37l-0.694,2.995c-0.506,0.124-1.038,0.221-1.597,0.29
			C452.131,107.893,451.465,107.929,450.687,107.929z"/>
		<path fill="#696969" d="M464.655,93.709l-3.235,13.947h-4.5l3.234-13.947H464.655z M466.023,88.332l-0.783,3.389h-4.744
			l0.784-3.389H466.023z"/>
		<path fill="#696969" d="M481.696,98.813c0,1.308-0.22,2.533-0.657,3.675c-0.439,1.144-1.057,2.123-1.852,2.943
			c-0.827,0.854-1.787,1.512-2.881,1.97c-1.092,0.46-2.367,0.69-3.824,0.69c-2.078,0-3.673-0.499-4.782-1.49
			c-1.108-0.993-1.662-2.37-1.662-4.123c0-1.243,0.207-2.424,0.621-3.54c0.412-1.119,1.026-2.102,1.838-2.956
			c0.786-0.835,1.753-1.495,2.899-1.981c1.147-0.484,2.433-0.725,3.856-0.725c2.087,0,3.683,0.491,4.788,1.469
			C481.144,95.727,481.696,97.082,481.696,98.813z M475.885,103.382c0.38-0.578,0.669-1.211,0.862-1.897
			c0.194-0.689,0.293-1.525,0.293-2.511c0-0.852-0.188-1.509-0.56-1.968c-0.373-0.459-0.964-0.689-1.775-0.689
			c-0.63,0-1.183,0.153-1.658,0.458c-0.476,0.305-0.896,0.742-1.261,1.305c-0.34,0.521-0.605,1.168-0.8,1.938
			c-0.195,0.77-0.292,1.561-0.292,2.372c0,0.952,0.211,1.632,0.633,2.042c0.423,0.408,1.002,0.617,1.739,0.617
			c0.538,0,1.055-0.148,1.553-0.441C475.114,104.313,475.537,103.904,475.885,103.382z"/>
		<path fill="#696969" d="M499.394,96.864c0,0.248-0.017,0.518-0.05,0.806c-0.032,0.29-0.086,0.592-0.161,0.907l-2.082,9.079h-4.528
			l1.586-6.917c0.115-0.513,0.206-0.953,0.272-1.317c0.065-0.362,0.1-0.703,0.1-1.019c0-0.539-0.138-0.934-0.411-1.179
			c-0.271-0.25-0.774-0.374-1.503-0.374c-0.357,0-0.767,0.077-1.23,0.229c-0.464,0.153-0.985,0.383-1.565,0.689l-2.271,9.888h-4.499
			l3.222-13.947h4.499l-0.368,1.54c0.92-0.605,1.76-1.077,2.519-1.417c0.76-0.34,1.593-0.508,2.505-0.508
			c1.253,0,2.229,0.302,2.923,0.906C499.046,94.835,499.394,95.713,499.394,96.864z"/>
	</g>
</g>
</svg>
